<svg xmlns="http://www.w3.org/2000/svg" xmlns:svg="http://www.w3.org/2000/svg" id="svg2" width="1052.362" height="744.094" version="1.1"><title id="title3277">GObject Introspection Architecture</title><defs id="defs4"><marker id="DotM" orient="auto" refX="0" refY="0" style="overflow:visible"><path id="path3833" d="m -2.5,-1 c 0,2.76 -2.24,5 -5,5 -2.76,0 -5,-2.24 -5,-5 0,-2.76 2.24,-5 5,-5 2.76,0 5,2.24 5,5 z" transform="matrix(0.4,0,0,0.4,2.96,0.4)" style="fill-rule:evenodd;stroke:#000;stroke-width:1pt;marker-start:none;marker-end:none"/></marker><marker id="Arrow2Mend" orient="auto" refX="0" refY="0" style="overflow:visible"><path id="path3795" d="M 8.7185878,4.0337352 -2.2072895,0.01601326 8.7185884,-4.0017078 c -1.7454984,2.3720609 -1.7354408,5.6174519 -6e-7,8.035443 z" transform="scale(-0.6,-0.6)" style="font-size:12px;fill-rule:evenodd;stroke-width:.625;stroke-linejoin:round"/></marker><marker id="Arrow2Lend" orient="auto" refX="0" refY="0" style="overflow:visible"><path id="path3789" d="M 8.7185878,4.0337352 -2.2072895,0.01601326 8.7185884,-4.0017078 c -1.7454984,2.3720609 -1.7354408,5.6174519 -6e-7,8.035443 z" transform="matrix(-1.1,0,0,-1.1,-1.1,0)" style="font-size:12px;fill-rule:evenodd;stroke-width:.625;stroke-linejoin:round"/></marker><marker id="Arrow1Lend" orient="auto" refX="0" refY="0" style="overflow:visible"><path id="path3771" d="M 0,0 5,-5 -12.5,0 5,5 0,0 z" transform="matrix(-0.8,0,0,-0.8,-10,0)" style="fill-rule:evenodd;stroke:#000;stroke-width:1pt;marker-start:none"/></marker><marker id="DotM-3" orient="auto" refX="0" refY="0" style="overflow:visible"><path id="path3833-1" d="m -2.5,-1 c 0,2.76 -2.24,5 -5,5 -2.76,0 -5,-2.24 -5,-5 0,-2.76 2.24,-5 5,-5 2.76,0 5,2.24 5,5 z" transform="matrix(0.4,0,0,0.4,2.96,0.4)" style="fill-rule:evenodd;stroke:#000;stroke-width:1pt;marker-start:none;marker-end:none"/></marker><marker id="Arrow2Lend-8" orient="auto" refX="0" refY="0" style="overflow:visible"><path id="path3789-9" d="M 8.7185878,4.0337352 -2.2072895,0.01601326 8.7185884,-4.0017078 c -1.7454984,2.3720609 -1.7354408,5.6174519 -6e-7,8.035443 z" transform="matrix(-1.1,0,0,-1.1,-1.1,0)" style="font-size:12px;fill-rule:evenodd;stroke-width:.625;stroke-linejoin:round"/></marker><marker id="DotM-2" orient="auto" refX="0" refY="0" style="overflow:visible"><path id="path3833-5" d="m -2.5,-1 c 0,2.76 -2.24,5 -5,5 -2.76,0 -5,-2.24 -5,-5 0,-2.76 2.24,-5 5,-5 2.76,0 5,2.24 5,5 z" transform="matrix(0.4,0,0,0.4,2.96,0.4)" style="fill-rule:evenodd;stroke:#000;stroke-width:1pt;marker-start:none;marker-end:none"/></marker><marker id="Arrow2Lend-4" orient="auto" refX="0" refY="0" style="overflow:visible"><path id="path3789-0" d="M 8.7185878,4.0337352 -2.2072895,0.01601326 8.7185884,-4.0017078 c -1.7454984,2.3720609 -1.7354408,5.6174519 -6e-7,8.035443 z" transform="matrix(-1.1,0,0,-1.1,-1.1,0)" style="font-size:12px;fill-rule:evenodd;stroke-width:.625;stroke-linejoin:round"/></marker></defs><metadata id="metadata7"/><g id="layer1" transform="translate(0,-308.2677)"><rect style="fill:#fff;fill-opacity:1;stroke:none" id="rect3211" width="1052" height="743" x="1.414" y="308.362" rx=".9" ry="1.28"/><rect style="opacity:.60852715;fill:#16aa41;fill-opacity:1;stroke:none" id="rect5275" width="254.989" height="84.836" x="176.486" y="840.188" rx="2.655" ry="2.655"/><rect id="rect5268" width="120.505" height="56.58" x="176.077" y="744.002" rx="2.655" ry="2.655" style="opacity:.60852715;fill:#16aa41;fill-opacity:1;stroke:none"/><rect style="opacity:.60852715;fill:#16aa41;fill-opacity:1;stroke:none" id="rect5233" width="120.505" height="56.58" x="310.88" y="744.002" rx="2.655" ry="2.655"/><rect id="rect5149" width="120.097" height="56.58" x="176.486" y="666.013" rx=".363" ry=".518" style="opacity:.60852715;fill:#8a3673;fill-opacity:1;stroke:none"/><rect style="opacity:.60852715;fill:#606060;fill-opacity:1;stroke:none" id="rect2985" width="226" height="60.405" x="176.486" y="498.122" rx=".682" ry=".553"/><text style="font-size:16.17547798px;font-style:normal;font-weight:400;line-height:125%;letter-spacing:0;word-spacing:0;fill:#000;fill-opacity:1;stroke:none;font-family:Sans" id="text3759" x="270.947" y="531.75" xml:space="preserve"><tspan id="tspan3761" x="270.947" y="531.75">foo.c</tspan></text><path style="fill:none;stroke:#000;stroke-width:1.21316099;stroke-linecap:butt;stroke-linejoin:miter;stroke-miterlimit:4;stroke-opacity:1;stroke-dasharray:none;marker-start:url(#DotM);marker-end:url(#Arrow2Lend)" id="path3763" d="m 232.44911,547.95853 0,130.51524"/><text id="text5151" x="200.861" y="702.408" xml:space="preserve" style="font-size:16.17547798px;font-style:normal;font-weight:400;line-height:125%;letter-spacing:0;word-spacing:0;fill:#000;fill-opacity:1;stroke:none;font-family:Sans"><tspan id="tspan5153" x="200.861" y="702.408">libfoo.so</tspan></text><rect style="opacity:.60852715;fill:#606060;fill-opacity:1;stroke:none" id="rect5155" width="120.505" height="56.58" x="310.88" y="583.906" rx=".364" ry=".518"/><path id="path5169" d="m 367.66014,547.95853 0,53.10402" style="fill:none;stroke:#000;stroke-width:1.21316099;stroke-linecap:butt;stroke-linejoin:miter;stroke-miterlimit:4;stroke-opacity:1;stroke-dasharray:none;marker-start:url(#DotM);marker-end:url(#Arrow2Lend)"/><text style="font-size:16.17547798px;font-style:normal;font-weight:400;line-height:125%;letter-spacing:0;word-spacing:0;fill:#000;fill-opacity:1;stroke:none;font-family:Sans" id="text5175" x="343.137" y="624.997" xml:space="preserve"><tspan id="tspan5177" x="343.137" y="624.997">Foo.gir</tspan></text><rect id="rect5181" width="120.505" height="56.58" x="310.88" y="666.013" rx=".364" ry=".518" style="opacity:.60852715;fill:#8a3673;fill-opacity:1;stroke:none"/><text style="font-size:16.17547798px;font-style:normal;font-weight:400;line-height:125%;letter-spacing:0;word-spacing:0;fill:#000;fill-opacity:1;stroke:none;font-family:Sans" id="text5187" x="263.176" y="575.328" xml:space="preserve"><tspan id="tspan5189" x="263.176" y="575.328">g-ir-scanner</tspan></text><text id="text5191" x="196.093" y="575.328" xml:space="preserve" style="font-size:16.17547798px;font-style:normal;font-weight:400;line-height:125%;letter-spacing:0;word-spacing:0;fill:#000;fill-opacity:1;stroke:none;font-family:Sans"><tspan id="tspan5193" x="196.093" y="575.328">gcc</tspan></text><path style="fill:none;stroke:#000;stroke-width:1.21316099;stroke-linecap:butt;stroke-linejoin:miter;stroke-miterlimit:4;stroke-opacity:1;stroke-dasharray:none;marker-start:url(#DotM);marker-end:url(#Arrow2Lend)" id="path5197" d="m 367.86439,635.58016 0,37.37708"/><text id="text5199" x="256.627" y="655.836" xml:space="preserve" style="font-size:16.17547798px;font-style:normal;font-weight:400;line-height:125%;letter-spacing:0;word-spacing:0;fill:#000;fill-opacity:1;stroke:none;font-family:Sans"><tspan id="tspan5201" x="256.627" y="655.836">g-ir-compiler</tspan></text><text id="text5209" x="327.539" y="702.408" xml:space="preserve" style="font-size:16.17547798px;font-style:normal;font-weight:400;line-height:125%;letter-spacing:0;word-spacing:0;fill:#000;fill-opacity:1;stroke:none;font-family:Sans"><tspan id="tspan5211" x="327.539" y="702.408">Foo.typelib</tspan></text><text style="font-size:16.17547798px;font-style:normal;font-weight:400;line-height:125%;letter-spacing:0;word-spacing:0;fill:#000;fill-opacity:1;stroke:none;font-family:Sans" id="text5215" x="297.022" y="896.438" xml:space="preserve"><tspan id="tspan5219" x="297.022" y="896.438" style="font-size:40px;text-align:center;text-anchor:middle">bindings</tspan></text><text id="text5242" x="319.702" y="777.797" xml:space="preserve" style="font-size:16.17547798px;font-style:normal;font-weight:400;line-height:125%;letter-spacing:0;word-spacing:0;fill:#000;fill-opacity:1;stroke:none;font-family:Sans"><tspan style="font-size:11.32283497px" id="tspan5244" x="319.702" y="777.797">libgirrepository.so</tspan></text><path style="fill:none;stroke:#000;stroke-width:1.21316099;stroke-linecap:butt;stroke-linejoin:miter;stroke-miterlimit:4;stroke-opacity:1;stroke-dasharray:none;marker-start:url(#DotM);marker-end:url(#Arrow2Lend)" id="path5260" d="m 367.66014,753.2557 0,-37.37707"/><text style="font-size:16.17547798px;font-style:normal;font-weight:400;line-height:125%;letter-spacing:0;word-spacing:0;fill:#000;fill-opacity:1;stroke:none;font-family:Sans" id="text5262" x="201.327" y="779.819" xml:space="preserve"><tspan id="tspan5264" x="201.327" y="779.819" style="font-size:19.41057587px">libffi.so</tspan></text><path id="path5266" d="m 233.0969,749.47378 -0.64779,-30.70879" style="fill:none;stroke:#000;stroke-width:1.21316099;stroke-linecap:butt;stroke-linejoin:miter;stroke-miterlimit:4;stroke-opacity:1;stroke-dasharray:none;marker-start:url(#DotM);marker-end:url(#Arrow2Lend)"/><path id="path5281" d="m 367.66014,847.01924 0,-55.35074" style="fill:none;stroke:#000;stroke-width:1.21316099;stroke-linecap:butt;stroke-linejoin:miter;stroke-miterlimit:4;stroke-opacity:1;stroke-dasharray:none;marker-start:url(#DotM);marker-end:url(#Arrow2Lend)"/><path style="fill:none;stroke:#000;stroke-width:1.21316099;stroke-linecap:butt;stroke-linejoin:miter;stroke-miterlimit:4;stroke-opacity:1;stroke-dasharray:none;marker-start:url(#DotM);marker-end:url(#Arrow2Lend)" id="path5283" d="m 232.44911,845.8143 0,-55.35074"/><text style="font-size:16.17547798px;font-style:normal;font-weight:400;line-height:125%;letter-spacing:0;word-spacing:0;fill:#000;fill-opacity:1;stroke:none;font-family:Sans" id="text5308" x="490.844" y="722.05" xml:space="preserve"><tspan id="tspan5310" x="490.844" y="722.05" style="font-size:58.23171997px;font-style:normal;font-variant:normal;font-weight:500;font-stretch:normal;fill:#8a3673;fill-opacity:1;font-family:Ubuntu;-inkscape-font-specification:Ubuntu Medium">Deployment</tspan></text><text id="text5318" x="490.844" y="853.723" xml:space="preserve" style="font-size:16.17547798px;font-style:normal;font-weight:400;line-height:125%;letter-spacing:0;word-spacing:0;fill:#000;fill-opacity:1;stroke:none;font-family:Sans"><tspan style="font-size:58.23171997px;font-style:normal;font-variant:normal;font-weight:500;font-stretch:normal;fill:#16aa41;fill-opacity:1;font-family:Ubuntu;-inkscape-font-specification:Ubuntu Medium" id="tspan5320" x="490.844" y="853.723">Consumption</tspan></text><text id="text5326" x="490.844" y="601.311" xml:space="preserve" style="font-size:16.17547798px;font-style:normal;font-weight:400;line-height:125%;letter-spacing:0;word-spacing:0;fill:#606060;fill-opacity:1;stroke:none;font-family:Sans"><tspan style="font-size:58.23171997px;font-style:normal;font-variant:normal;font-weight:500;font-stretch:normal;fill:#606060;fill-opacity:1;font-family:Ubuntu;-inkscape-font-specification:Ubuntu Medium" id="tspan5328" x="490.844" y="601.311">Development</tspan></text><rect style="opacity:.60852715;fill:#606060;fill-opacity:1;stroke:none" id="rect2985-6" width="254.899" height="60.405" x="178.179" y="404.421" rx=".77" ry=".553"/><text style="font-size:16.17547798px;font-style:normal;font-weight:400;line-height:125%;letter-spacing:0;word-spacing:0;fill:#000;fill-opacity:1;stroke:none;font-family:Sans" id="text3759-4" x="280.451" y="438.049" xml:space="preserve"><tspan id="tspan3761-3" x="280.451" y="438.049">foo.vala</tspan></text><path id="path5169-3" d="m 369.35335,454.25697 0,53.10403" style="fill:none;stroke:#000;stroke-width:1.21316099;stroke-linecap:butt;stroke-linejoin:miter;stroke-miterlimit:4;stroke-opacity:1;stroke-dasharray:none;marker-start:url(#DotM);marker-end:url(#Arrow2Lend)"/><text style="font-size:16.17547798px;font-style:normal;font-weight:400;line-height:125%;letter-spacing:0;word-spacing:0;fill:#000;fill-opacity:1;stroke:none;font-family:Sans" id="text5187-3" x="373.753" y="486.754" xml:space="preserve"><tspan id="tspan5189-8" x="373.753" y="486.754">valac</tspan></text><path id="path5169-3-5" d="m 419.70848,452.574 0,148.40335" style="fill:none;stroke:#000;stroke-width:1.21316099;stroke-linecap:butt;stroke-linejoin:miter;stroke-miterlimit:4;stroke-opacity:1;stroke-dasharray:none;marker-start:url(#DotM);marker-end:url(#Arrow2Lend)"/></g></svg>